<svg width="600" height="600" viewBox="0 0 600 600" fill="none" xmlns="http://www.w3.org/2000/svg">
<circle cx="300" cy="300" r="300" fill="#0F5B17"/>
<path d="M248.79 254.881L248.79 254.881L248.8 254.887C251.047 256.329 253.134 257.667 254.988 258.569C256.827 259.464 258.547 259.987 260.028 259.655C261.57 259.309 262.687 258.083 263.411 255.903C264.131 253.734 264.5 250.524 264.5 246C264.5 231.011 260.446 217.411 253.868 207.545C247.293 197.681 238.155 191.5 228 191.5C217.845 191.5 208.707 197.681 202.132 207.545C195.554 217.411 191.5 231.011 191.5 246C191.5 250.515 191.869 253.721 192.589 255.888C193.313 258.066 194.43 259.293 195.971 259.641C197.452 259.976 199.173 259.457 201.012 258.564C202.868 257.664 204.959 256.325 207.21 254.881L207.336 254.801C213.281 251.017 220.379 246.5 228 246.5C235.676 246.5 242.823 251.047 248.79 254.881ZM175.26 335.5H175.259C168.856 335.507 162.566 337.198 157.023 340.404C151.479 343.61 146.877 348.219 143.678 353.766C140.479 359.314 138.795 365.605 138.797 372.009C138.799 378.413 140.485 384.704 143.687 390.25C159.523 417.694 182.307 440.483 209.747 456.326C237.187 472.169 268.315 480.507 300 480.5C331.691 480.513 362.827 472.178 390.273 456.335C417.72 440.492 440.51 417.699 456.349 390.25C459.553 384.701 461.239 378.407 461.239 372C461.239 365.593 459.553 359.299 456.349 353.75C453.146 348.201 448.538 343.594 442.99 340.39C437.441 337.187 431.147 335.5 424.74 335.5H175.26ZM392.79 254.881L392.79 254.881L392.8 254.887C395.047 256.329 397.134 257.667 398.988 258.569C400.827 259.464 402.547 259.987 404.028 259.655C405.57 259.309 406.687 258.083 407.411 255.903C408.131 253.734 408.5 250.524 408.5 246C408.5 231.011 404.446 217.411 397.868 207.545C391.293 197.681 382.155 191.5 372 191.5C361.845 191.5 352.707 197.681 346.132 207.545C339.554 217.411 335.5 231.011 335.5 246C335.5 250.515 335.869 253.721 336.589 255.888C337.313 258.066 338.43 259.293 339.971 259.641C341.452 259.976 343.173 259.457 345.012 258.564C346.868 257.664 348.959 256.325 351.21 254.881L351.336 254.801C357.281 251.017 364.379 246.5 372 246.5C379.676 246.5 386.823 251.047 392.79 254.881ZM503.293 503.293C449.376 557.21 376.25 587.5 300 587.5C223.75 587.5 150.624 557.21 96.7068 503.293C42.7901 449.376 12.5 376.25 12.5 300C12.5 223.75 42.7901 150.624 96.7068 96.7068C150.624 42.7901 223.75 12.5 300 12.5C376.25 12.5 449.376 42.7901 503.293 96.7068C557.21 150.624 587.5 223.75 587.5 300C587.5 376.25 557.21 449.376 503.293 503.293Z" fill="#47E056" stroke="#0F5B17"/>
</svg>
