<svg width="600" height="600" viewBox="0 0 600 600" fill="none" xmlns="http://www.w3.org/2000/svg">
<circle cx="300" cy="300" r="300" fill="#173C74"/>
<path d="M300 588C376.382 588 449.636 557.657 503.647 503.647C557.657 449.636 588 376.382 588 300C588 223.618 557.657 150.364 503.647 96.3533C449.636 42.3428 376.382 12 300 12C223.618 12 150.364 42.3428 96.3533 96.3533C42.3428 150.364 12 223.618 12 300C12 376.382 42.3428 449.636 96.3533 503.647C150.364 557.657 223.618 588 300 588ZM264 246C264 275.808 247.872 300 228 300C208.128 300 192 275.808 192 246C192 216.192 208.128 192 228 192C247.872 192 264 216.192 264 246ZM166.26 356.412C170.394 354.025 175.307 353.378 179.918 354.614C184.529 355.849 188.461 358.866 190.848 363C201.904 382.164 217.814 398.077 236.976 409.137C256.138 420.197 277.875 426.013 300 426C322.125 426.013 343.862 420.197 363.024 409.137C382.186 398.077 398.096 382.164 409.152 363C410.325 360.936 411.895 359.125 413.771 357.671C415.647 356.216 417.793 355.147 420.084 354.525C422.374 353.903 424.766 353.741 427.12 354.047C429.474 354.353 431.744 355.121 433.8 356.308C435.856 357.495 437.656 359.077 439.098 360.963C440.54 362.848 441.595 365.001 442.202 367.296C442.809 369.591 442.955 371.983 442.634 374.335C442.312 376.687 441.529 378.952 440.328 381C426.112 405.637 405.658 426.094 381.024 440.314C356.389 454.533 328.444 462.013 300 462C271.556 462.013 243.611 454.533 218.976 440.314C194.342 426.094 173.888 405.637 159.672 381C157.285 376.866 156.638 371.953 157.874 367.342C159.109 362.731 162.126 358.799 166.26 356.412ZM372 300C352.128 300 336 275.808 336 246C336 216.192 352.128 192 372 192C391.872 192 408 216.192 408 246C408 275.808 391.872 300 372 300Z" fill="#3E86F3"/>
</svg>
