<svg width="600" height="600" viewBox="0 0 600 600" fill="none" xmlns="http://www.w3.org/2000/svg">
<circle cx="300" cy="300" r="300" fill="#7C6512"/>
<path d="M503.293 503.293C449.376 557.21 376.25 587.5 300 587.5C223.75 587.5 150.624 557.21 96.7068 503.293C42.7901 449.376 12.5 376.25 12.5 300C12.5 223.75 42.7901 150.624 96.7068 96.7068C150.624 42.7901 223.75 12.5 300 12.5C376.25 12.5 449.376 42.7901 503.293 96.7068C557.21 150.624 587.5 223.75 587.5 300C587.5 376.25 557.21 449.376 503.293 503.293ZM228 300.5C238.155 300.5 247.293 294.319 253.868 284.455C260.446 274.589 264.5 260.989 264.5 246C264.5 231.011 260.446 217.411 253.868 207.545C247.293 197.681 238.155 191.5 228 191.5C217.845 191.5 208.707 197.681 202.132 207.545C195.554 217.411 191.5 231.011 191.5 246C191.5 260.989 195.554 274.589 202.132 284.455C208.707 294.319 217.845 300.5 228 300.5ZM160.919 376.919C157.449 380.388 155.5 385.094 155.5 390C155.5 394.906 157.449 399.612 160.919 403.081C164.388 406.551 169.093 408.5 174 408.5H426C430.906 408.5 435.612 406.551 439.081 403.081C442.551 399.612 444.5 394.906 444.5 390C444.5 385.094 442.551 380.388 439.081 376.919C435.612 373.449 430.906 371.5 426 371.5H174C169.093 371.5 164.388 373.449 160.919 376.919ZM335.5 246C335.5 260.989 339.554 274.589 346.132 284.455C352.707 294.319 361.845 300.5 372 300.5C382.155 300.5 391.293 294.319 397.868 284.455C404.446 274.589 408.5 260.989 408.5 246C408.5 231.011 404.446 217.411 397.868 207.545C391.293 197.681 382.155 191.5 372 191.5C361.845 191.5 352.707 197.681 346.132 207.545C339.554 217.411 335.5 231.011 335.5 246Z" fill="#F4CA36" stroke="#7C6512"/>
</svg>
