<svg width="600" height="600" viewBox="0 0 600 600" fill="none" xmlns="http://www.w3.org/2000/svg">
<circle cx="300" cy="300" r="300" fill="#4F0C0C"/>
<path d="M440.763 434.753L440.761 434.75C426.496 410.042 405.977 389.525 381.268 375.263C356.559 361 328.53 353.494 300 353.5C271.469 353.487 243.437 360.99 218.726 375.253C194.016 389.517 173.498 410.037 159.239 434.75C156.786 438.999 156.121 444.049 157.391 448.788C158.661 453.527 161.761 457.568 166.01 460.021C170.259 462.474 175.309 463.139 180.048 461.869C184.787 460.599 188.828 457.499 191.281 453.25L190.848 453L191.281 453.25C202.293 434.162 218.14 418.312 237.226 407.296C256.312 396.28 277.963 390.487 300 390.5H300C322.037 390.487 343.688 396.28 362.774 407.296C381.86 418.312 397.707 434.162 408.719 453.25L408.721 453.253C411.191 457.467 415.229 460.533 419.952 461.782C424.675 463.031 429.7 462.361 433.931 459.918C438.161 457.475 441.254 453.458 442.534 448.744C443.814 444.029 443.177 439 440.763 434.753ZM503.293 503.293C449.376 557.21 376.25 587.5 300 587.5C223.75 587.5 150.624 557.21 96.7068 503.293C42.7901 449.376 12.5 376.25 12.5 300C12.5 223.75 42.7901 150.624 96.7068 96.7068C150.624 42.7901 223.75 12.5 300 12.5C376.25 12.5 449.376 42.7901 503.293 96.7068C557.21 150.624 587.5 223.75 587.5 300C587.5 376.25 557.21 449.376 503.293 503.293ZM228 300.5C238.155 300.5 247.293 294.319 253.868 284.455C260.446 274.589 264.5 260.989 264.5 246C264.5 231.011 260.446 217.411 253.868 207.545C247.293 197.681 238.155 191.5 228 191.5C217.845 191.5 208.707 197.681 202.132 207.545C195.554 217.411 191.5 231.011 191.5 246C191.5 260.989 195.554 274.589 202.132 284.455C208.707 294.319 217.845 300.5 228 300.5ZM335.5 246C335.5 260.989 339.554 274.589 346.132 284.455C352.707 294.319 361.845 300.5 372 300.5C382.155 300.5 391.293 294.319 397.868 284.455C404.446 274.589 408.5 260.989 408.5 246C408.5 231.011 404.446 217.411 397.868 207.545C391.293 197.681 382.155 191.5 372 191.5C361.845 191.5 352.707 197.681 346.132 207.545C339.554 217.411 335.5 231.011 335.5 246Z" fill="#FF3131" stroke="#4F0C0C"/>
</svg>
