<svg width="60" height="60" viewBox="0 0 60 60" fill="none" xmlns="http://www.w3.org/2000/svg">
<path opacity="0.21" fill-rule="evenodd" clip-rule="evenodd" d="M0 30V37C0 49.7025 10.2975 60 23 60H30H37C49.7025 60 60 49.7025 60 37V30V23C60 10.2975 49.7025 0 37 0H30H23C10.2975 0 0 10.2975 0 23V30Z" fill="#E7D7FF"/>
<path d="M19.68 33.02C19.5067 33.1533 19.28 33.2667 19 33.36C18.7333 33.4533 18.42 33.5 18.06 33.5C17.58 33.5 17.18 33.44 16.86 33.32C16.5533 33.2 16.3533 32.9933 16.26 32.7C15.8867 31.5133 15.58 30.56 15.34 29.84C15.1 29.12 14.9133 28.4867 14.78 27.94H14.68C14.64 28.7267 14.6067 29.4467 14.58 30.1C14.5667 30.74 14.5533 31.3667 14.54 31.98C14.54 32.58 14.5267 33.2 14.5 33.84C14.4867 34.4667 14.46 35.16 14.42 35.92C14.2467 35.9733 14.02 36.0267 13.74 36.08C13.46 36.1333 13.18 36.16 12.9 36.16C12.3267 36.16 11.8733 36.0667 11.54 35.88C11.2067 35.6933 11.04 35.3533 11.04 34.86C11.04 34.5267 11.0533 34.0733 11.08 33.5C11.1067 32.9133 11.14 32.26 11.18 31.54C11.2333 30.8067 11.28 30.04 11.32 29.24C11.3733 28.44 11.4267 27.6467 11.48 26.86C11.5333 26.0733 11.58 25.34 11.62 24.66C11.7267 24.4867 11.96 24.3 12.32 24.1C12.68 23.9 13.1867 23.8 13.84 23.8C14.5467 23.8 15.1 23.9133 15.5 24.14C15.9133 24.3533 16.2067 24.7067 16.38 25.2C16.54 25.6267 16.7133 26.1333 16.9 26.72C17.0867 27.2933 17.2733 27.88 17.46 28.48C17.6467 29.0667 17.8133 29.5933 17.96 30.06H18.06C18.38 28.9533 18.7 27.8733 19.02 26.82C19.3533 25.7533 19.6467 24.8733 19.9 24.18C20.1 24.0733 20.36 23.9867 20.68 23.92C21 23.84 21.3467 23.8 21.72 23.8C22.3733 23.8 22.9067 23.9 23.32 24.1C23.7333 24.2867 23.9733 24.56 24.04 24.92C24.0933 25.1867 24.1467 25.5933 24.2 26.14C24.2667 26.6867 24.3333 27.3133 24.4 28.02C24.4667 28.7267 24.5333 29.4667 24.6 30.24C24.6667 31 24.7267 31.74 24.78 32.46C24.8467 33.18 24.9 33.8333 24.94 34.42C24.98 34.9933 25.0067 35.4467 25.02 35.78C24.7933 35.9133 24.5533 36.0067 24.3 36.06C24.06 36.1267 23.7467 36.16 23.36 36.16C22.8667 36.16 22.44 36.0733 22.08 35.9C21.7333 35.7267 21.5467 35.3867 21.52 34.88C21.4667 33.9067 21.4267 33 21.4 32.16C21.3733 31.32 21.3533 30.5533 21.34 29.86C21.3267 29.1667 21.3067 28.56 21.28 28.04H21.18C21.0467 28.56 20.8533 29.2133 20.6 30C20.3467 30.7867 20.04 31.7933 19.68 33.02ZM37.1294 31.14C37.1294 32.2067 36.9094 33.1267 36.4694 33.9C36.0427 34.6733 35.436 35.2733 34.6494 35.7C33.876 36.1133 32.956 36.32 31.8894 36.32C30.836 36.32 29.916 36.1133 29.1294 35.7C28.3427 35.2867 27.7294 34.6933 27.2894 33.92C26.8627 33.1467 26.6494 32.22 26.6494 31.14C26.6494 30.0867 26.8694 29.1733 27.3094 28.4C27.7494 27.6267 28.3627 27.0333 29.1494 26.62C29.936 26.1933 30.8494 25.98 31.8894 25.98C32.9427 25.98 33.856 26.1933 34.6294 26.62C35.416 27.0467 36.0294 27.6467 36.4694 28.42C36.9094 29.1933 37.1294 30.1 37.1294 31.14ZM31.8894 28.64C31.3427 28.64 30.9094 28.86 30.5894 29.3C30.2827 29.7267 30.1294 30.34 30.1294 31.14C30.1294 31.9667 30.2827 32.5933 30.5894 33.02C30.896 33.4467 31.3294 33.66 31.8894 33.66C32.4494 33.66 32.8827 33.4467 33.1894 33.02C33.496 32.58 33.6494 31.9533 33.6494 31.14C33.6494 30.3533 33.4894 29.74 33.1694 29.3C32.8627 28.86 32.436 28.64 31.8894 28.64ZM39.2828 32.16L46.3028 23.82H47.3028C47.8895 24.3 48.1828 24.94 48.1828 25.74C48.1828 26.0733 48.1028 26.4067 47.9428 26.74C47.7961 27.06 47.6028 27.3667 47.3628 27.66L40.4028 36H39.1828C38.9561 35.8133 38.7695 35.56 38.6228 35.24C38.4761 34.92 38.4028 34.5533 38.4028 34.14C38.4028 33.8067 38.4895 33.4667 38.6628 33.12C38.8361 32.7733 39.0428 32.4533 39.2828 32.16ZM39.5828 36L41.4228 33.14H47.9428C48.0361 33.3 48.1228 33.5 48.2028 33.74C48.2828 33.98 48.3228 34.2467 48.3228 34.54C48.3228 35.0467 48.2095 35.42 47.9828 35.66C47.7695 35.8867 47.4695 36 47.0828 36H39.5828ZM46.6628 23.82L45.2028 26.68H38.9628C38.8695 26.52 38.7828 26.3267 38.7028 26.1C38.6228 25.86 38.5828 25.5933 38.5828 25.3C38.5828 24.7933 38.6961 24.42 38.9228 24.18C39.1495 23.94 39.4561 23.82 39.8428 23.82H46.6628Z" fill="#6951C6"/>
</svg>
