<svg width="32" height="32" viewBox="0 0 32 32" fill="none" xmlns="http://www.w3.org/2000/svg">
<path opacity="0.21" fill-rule="evenodd" clip-rule="evenodd" d="M0 16V22C0 27.5228 4.47715 32 10 32H16H22C27.5228 32 32 27.5228 32 22V16V10C32 4.47715 27.5228 0 22 0H16H10C4.47715 0 0 4.47715 0 10V16Z" fill="#D9644A"/>
<path d="M10.1926 21.8073H22.637C23.0952 21.8073 23.4667 22.1787 23.4667 22.6369C23.4667 23.0951 23.0952 23.4665 22.637 23.4665H9.36296C8.90477 23.4665 8.53333 23.0951 8.53333 22.6369V9.36283C8.53333 8.90464 8.90477 8.5332 9.36296 8.5332C9.82115 8.5332 10.1926 8.90464 10.1926 9.36283V21.8073Z" fill="#D9644A"/>
<path opacity="0.5" d="M13.2871 18.2262C12.9737 18.5605 12.4487 18.5774 12.1144 18.264C11.7802 17.9506 11.7632 17.4256 12.0766 17.0914L15.1877 13.7728C15.4908 13.4496 15.9944 13.4215 16.3315 13.7092L18.787 15.8045L21.9862 11.7521C22.2702 11.3925 22.7919 11.3311 23.1515 11.615C23.5111 11.8989 23.5725 12.4206 23.2886 12.7803L19.5552 17.5092C19.2636 17.8785 18.7235 17.9316 18.3655 17.6262L15.8567 15.4853L13.2871 18.2262Z" fill="#D9644A"/>
</svg>
