<svg width="32" height="32" viewBox="0 0 32 32" fill="none" xmlns="http://www.w3.org/2000/svg">
<path opacity="0.21" fill-rule="evenodd" clip-rule="evenodd" d="M0 16V22C0 27.5228 4.47715 32 10 32H16H22C27.5228 32 32 27.5228 32 22V16V10C32 4.47715 27.5228 0 22 0H16H10C4.47715 0 0 4.47715 0 10V16Z" fill="#80D1FF"/>
<path fill-rule="evenodd" clip-rule="evenodd" d="M23.7945 8.88548L17.4407 6.1624C16.5207 5.76813 15.4793 5.76813 14.5593 6.1624L8.20551 8.88548C7.75729 9.07758 7.46667 9.51831 7.46667 10.006V16.4095C7.46667 18.7717 8.60744 20.9884 10.5296 22.3614L14.5829 25.2565C15.4306 25.862 16.5694 25.862 17.4171 25.2565L21.4704 22.3614C23.3925 20.9884 24.5333 18.7717 24.5333 16.4095V10.006C24.5333 9.51831 24.2427 9.07758 23.7945 8.88548ZM20.6091 13.6211C21.0297 13.0954 20.9445 12.3282 20.4187 11.9076C19.8929 11.4871 19.1258 11.5723 18.7052 12.098L14.6799 17.1298L13.2049 15.6547C12.7288 15.1787 11.9569 15.1787 11.4809 15.6547C11.0048 16.1307 11.0048 16.9026 11.4809 17.3787L13.4374 19.3353C14.208 20.1059 15.4775 20.0356 16.1582 19.1846L20.6091 13.6211Z" fill="#4E758C"/>
</svg>
