<svg width="32" height="32" viewBox="0 0 32 32" fill="none" xmlns="http://www.w3.org/2000/svg">
<path opacity="0.21" fill-rule="evenodd" clip-rule="evenodd" d="M0 16V22C0 27.5228 4.47715 32 10 32H16H22C27.5228 32 32 27.5228 32 22V16V10C32 4.47715 27.5228 0 22 0H16H10C4.47715 0 0 4.47715 0 10V16Z" fill="#FF8743"/>
<path d="M23.2319 11.6408C23.1785 11.5109 23.0879 11.3998 22.9715 11.3213C22.8551 11.2429 22.718 11.2006 22.5776 11.1999H21.1554V9.77769C21.1547 9.6373 21.1125 9.50026 21.034 9.38384C20.9556 9.26741 20.8444 9.17682 20.7145 9.12347C20.585 9.06901 20.4423 9.05414 20.3044 9.08071C20.1664 9.10729 20.0394 9.17413 19.9394 9.2728L17.8061 11.4061C17.7402 11.4726 17.688 11.5514 17.6527 11.638C17.6173 11.7247 17.5993 11.8174 17.5999 11.911V13.7528L16.0283 15.3172C15.9617 15.3834 15.9088 15.462 15.8727 15.5487C15.8366 15.6353 15.818 15.7283 15.818 15.8221C15.818 15.916 15.8366 16.009 15.8727 16.0956C15.9088 16.1823 15.9617 16.2609 16.0283 16.327C16.0944 16.3937 16.1731 16.4466 16.2597 16.4827C16.3464 16.5188 16.4393 16.5374 16.5332 16.5374C16.6271 16.5374 16.72 16.5188 16.8067 16.4827C16.8933 16.4466 16.972 16.3937 17.0381 16.327L18.6025 14.7555H20.4443C20.5379 14.756 20.6307 14.7381 20.7173 14.7027C20.804 14.6673 20.8828 14.6152 20.9492 14.5492L23.0825 12.4159C23.1812 12.3159 23.2481 12.1889 23.2746 12.051C23.3012 11.913 23.2863 11.7703 23.2319 11.6408Z" fill="#FF8743"/>
<path d="M16.178 23.2886C14.2921 23.2886 12.4833 22.5394 11.1497 21.2058C9.81613 19.8722 9.06693 18.0635 9.06693 16.1775C9.06693 14.2915 9.81613 12.4828 11.1497 11.1492C12.4833 9.81561 14.2921 9.06641 16.178 9.06641H16.4767C16.5701 9.07481 16.6609 9.10153 16.744 9.14503C16.827 9.18853 16.9007 9.24796 16.9608 9.31994C17.0209 9.39192 17.0662 9.47502 17.0942 9.56452C17.1221 9.65401 17.1322 9.74813 17.1238 9.84152C17.1154 9.9349 17.0887 10.0257 17.0452 10.1088C17.0017 10.1918 16.9423 10.2655 16.8703 10.3256C16.7983 10.3857 16.7152 10.431 16.6257 10.459C16.5362 10.487 16.4421 10.497 16.3487 10.4886H16.178C15.0529 10.4886 13.953 10.8223 13.0175 11.4474C12.0819 12.0725 11.3528 12.961 10.9222 14.0005C10.4916 15.04 10.379 16.1838 10.5985 17.2874C10.818 18.3909 11.3598 19.4046 12.1554 20.2002C12.951 20.9958 13.9647 21.5376 15.0682 21.7571C16.1717 21.9766 17.3156 21.8639 18.3551 21.4334C19.3946 21.0028 20.2831 20.2736 20.9082 19.3381C21.5333 18.4026 21.8669 17.3027 21.8669 16.1775C21.8705 16.1207 21.8705 16.0637 21.8669 16.0069C21.8581 15.9134 21.8679 15.8191 21.8958 15.7295C21.9236 15.6398 21.9689 15.5566 22.029 15.4845C22.0892 15.4124 22.163 15.353 22.2463 15.3096C22.3295 15.2662 22.4205 15.2398 22.514 15.2317C22.6075 15.2229 22.7018 15.2327 22.7914 15.2606C22.8811 15.2884 22.9643 15.3337 23.0364 15.3938C23.1084 15.454 23.1679 15.5278 23.2113 15.6111C23.2546 15.6943 23.2811 15.7853 23.2891 15.8789C23.2891 15.9784 23.2891 16.078 23.2891 16.1775C23.2891 18.0635 22.5399 19.8722 21.2064 21.2058C19.8728 22.5394 18.064 23.2886 16.178 23.2886ZM20.3594 17.0309C20.3971 16.8423 20.3583 16.6464 20.2517 16.4864C20.145 16.3263 19.9791 16.2152 19.7905 16.1775C19.6019 16.1398 19.406 16.1785 19.246 16.2852C19.086 16.3919 18.9749 16.5578 18.9371 16.7464C18.835 17.2515 18.5976 17.7194 18.2502 18.1001C17.9028 18.4808 17.4585 18.7599 16.9647 18.9077C16.471 19.0555 15.9464 19.0663 15.447 18.9391C14.9476 18.8119 14.4921 18.5514 14.1293 18.1854C13.7664 17.8195 13.5098 17.3618 13.3868 16.8613C13.2639 16.3608 13.2792 15.8364 13.4312 15.3439C13.5831 14.8515 13.866 14.4096 14.2496 14.0654C14.6333 13.7213 15.1032 13.4878 15.6091 13.39C15.7977 13.3522 15.9636 13.2411 16.0703 13.0811C16.177 12.9211 16.2158 12.7252 16.178 12.5366C16.1403 12.348 16.0292 12.1821 15.8692 12.0755C15.7092 11.9688 15.5133 11.93 15.3247 11.9677C14.5696 12.1221 13.8704 12.4781 13.3013 12.9979C12.7323 13.5178 12.3147 14.1821 12.0929 14.9202C11.8711 15.6583 11.8534 16.4428 12.0417 17.1901C12.23 17.9375 12.6172 18.62 13.1621 19.165C13.7071 19.71 14.3896 20.0972 15.137 20.2854C15.8844 20.4737 16.6688 20.456 17.4069 20.2342C18.1451 20.0124 18.8093 19.5948 19.3292 19.0258C19.849 18.4567 20.205 17.7575 20.3594 17.0024V17.0309Z" fill="#FFAC7C"/>
</svg>
