<svg width="32" height="32" viewBox="0 0 32 32" fill="none" xmlns="http://www.w3.org/2000/svg">
<path opacity="0.21" fill-rule="evenodd" clip-rule="evenodd" d="M0 16V22C0 27.5228 4.47715 32 10 32H16H22C27.5228 32 32 27.5228 32 22V16V10C32 4.47715 27.5228 0 22 0H16H10C4.47715 0 0 4.47715 0 10V16Z" fill="#93C19B"/>
<path d="M17.0203 17.1424C17.4818 18.3163 17.4555 19.398 17.1338 20.3205C17.1193 20.3625 17.1879 20.393 17.1717 20.434C17.1646 20.4528 16.9867 20.5475 17.1338 20.5475C17.049 20.7545 16.991 20.8888 16.869 21.0772C16.3369 21.898 15.5408 22.4384 14.3719 22.8176C12.1402 23.5417 10.3132 23.0394 8.62099 21.1529L6.42656 18.6936C5.86445 18.0641 5.81544 17.613 6.38873 17.1802C6.90129 16.7931 7.48741 16.6309 7.99971 17.1335L8.73449 18.0883C8.75635 18.1071 8.86042 18.0207 8.88583 18.0126C8.9176 18.0023 9.04861 17.8901 9.03717 17.8612L7.25893 13.2454C6.99388 12.5714 7.26778 12.3786 7.97779 12.1482C8.23775 12.0639 8.57357 11.9423 8.81016 12.0347C8.6615 11.4203 8.86351 11.0656 9.49118 10.8618C10.1062 10.6624 10.5364 10.9584 10.8532 11.4921C10.9551 11.2969 11.2301 11.0496 11.4586 10.9753C12.1178 10.7615 12.4558 10.7485 12.7071 11.3878L13.0855 12.186C13.1932 11.9693 13.5317 11.7824 13.8044 11.6942C14.4638 11.4803 14.8371 11.6532 15.0907 12.298L15.5826 13.5481L15.9988 14.6074L17.0203 17.1424Z" fill="#DEFFE4"/>
<path d="M19.7818 17.9448C19.6677 17.9333 19.5653 17.8492 19.5229 17.7163C19.4619 17.526 19.5465 17.307 19.7117 17.2276C20.0794 17.0507 20.4573 16.9515 20.8344 16.9322C20.9599 16.9258 21.0842 16.928 21.2072 16.9392C21.2461 16.9427 21.2847 16.9471 21.3233 16.9522H21.3236C21.3619 16.9573 21.4006 16.9634 21.4387 16.9703H21.4389C21.4773 16.9774 21.5154 16.9852 21.5533 16.9937C21.6295 17.0111 21.705 17.0319 21.7797 17.0558C21.8173 17.068 21.8547 17.081 21.8918 17.0947L24.5872 11.9364C24.7107 11.6998 24.6238 11.465 24.3684 11.3526C24.1189 11.2426 23.8592 11.3245 23.7357 11.561L21.6857 15.4843C21.5851 15.6769 21.3248 15.745 21.118 15.6539C20.905 15.56 20.8125 15.3365 20.9132 15.1439L23.3194 10.5384C23.4401 10.3074 23.353 10.0592 23.1095 9.9519C22.8541 9.83925 22.5947 9.93479 22.474 10.166L20.0675 14.7712C19.961 14.975 19.7005 15.0295 19.4937 14.9384C19.2932 14.8499 19.1824 14.632 19.2888 14.4284L21.3388 10.5051C21.4623 10.2686 21.3693 10.0313 21.1137 9.91866C20.8644 9.80894 20.6169 9.89594 20.4931 10.1327L18.2965 14.3365C18.1903 14.5401 17.9298 14.5946 17.723 14.5034C17.5283 14.4176 17.4175 14.1997 17.524 13.9961L18.993 11.1845C19.114 10.9533 19.0177 10.7077 18.7681 10.598C18.5128 10.4853 18.2622 10.578 18.1415 10.8091L16.1835 14.5562L15.7594 13.4773L17.3786 10.3783C17.7006 9.76203 18.36 9.53135 18.9928 9.81017C19.2543 9.92526 19.4545 10.1151 19.5384 10.3414L19.8573 9.73075C20.1765 9.12008 20.8034 8.90871 21.4359 9.18753C21.6549 9.28405 21.8366 9.45193 21.9169 9.65646C22.2897 9.15747 22.8905 8.98202 23.4805 9.24202C24.0828 9.5074 24.3031 10.0308 24.0889 10.6271C24.3341 10.5589 24.5994 10.5811 24.8487 10.6911C25.53 10.9912 25.7643 11.5884 25.4279 12.2323L23.1222 16.645C23.1077 16.6726 23.1085 16.7 23.139 16.7134C23.1631 16.7242 23.1901 16.7156 23.2137 16.699L24.0691 15.9928C24.633 15.5439 25.3077 15.5706 25.7757 16.0067C26.299 16.4947 26.2464 17.1687 25.6192 17.7386L23.1253 19.9904C21.2382 21.6972 19.1864 22.0863 17.045 21.1428C17.0348 21.1384 17.0246 21.1335 17.0145 21.1291C17.1364 20.9407 17.2404 20.7425 17.3253 20.5355C17.3329 20.517 17.3402 20.4984 17.3474 20.4796C17.3636 20.4385 17.3791 20.3972 17.3936 20.3554C17.4005 20.3584 17.4073 20.3616 17.4142 20.3647C19.1115 21.1125 20.7843 20.9761 22.5068 19.4269L25.004 17.1831C25.269 16.9478 25.2932 16.7012 25.0957 16.506C24.911 16.3298 24.6286 16.3545 24.3956 16.5426L22.694 17.851C22.477 18.0144 22.2923 18.057 22.1192 18.0247C22.0816 18.0213 22.045 18.0037 22.011 17.9868C22.0107 17.9866 22.0038 17.9775 22.0036 17.9775C21.9878 17.9717 21.9825 17.9719 21.967 17.9651C21.9426 17.9541 21.921 17.947 21.8997 17.9336C21.6051 17.795 21.2814 17.6831 20.9444 17.677C20.9083 17.6762 20.8717 17.6767 20.8352 17.6787C20.5333 17.6943 20.2293 17.7745 19.9323 17.9172C19.8825 17.9414 19.8309 17.9499 19.7816 17.9448H19.7818Z" fill="#93C19B"/>
<path d="M21.8949 17.939C21.6004 17.8007 21.281 17.6846 20.9448 17.6772C21.2818 17.6834 21.6055 17.7953 21.9 17.9338C21.9214 17.9473 21.943 17.9544 21.9674 17.9654C21.9829 17.9722 21.9882 17.972 22.004 17.9778C22.0042 17.9778 22.0111 17.9869 22.0113 17.9871C22.0454 18.004 22.082 18.0216 22.1196 18.025C22.082 18.0216 22.0449 18.012 22.0108 17.9949C22.0106 17.9949 22.0103 17.9947 22.0101 17.9947C21.9722 17.9759 21.9338 17.9573 21.8949 17.939Z" fill="#93C19B"/>
<path d="M18.7688 10.5979C19.0183 10.7076 19.1146 10.9532 18.9937 11.1844L17.5246 13.996C17.4181 14.1996 17.5289 14.4175 17.7236 14.5033C17.9304 14.5945 18.1909 14.54 18.2971 14.3364L20.4937 10.1326C20.6175 9.89583 20.865 9.80883 21.1143 9.91855C21.3699 10.0312 21.4629 10.2685 21.3394 10.505L19.2895 14.4283C19.183 14.6318 19.2938 14.8498 19.4943 14.9383C19.7011 15.0294 19.9616 14.9749 20.0681 14.7711L22.4746 10.1658C22.5953 9.93468 22.8548 9.83913 23.1101 9.95179C23.3536 10.0591 23.4408 10.3073 23.32 10.5383L20.9138 15.1438C20.8132 15.3363 20.9057 15.5599 21.1186 15.6538C21.3255 15.7449 21.5857 15.6767 21.6863 15.4842L23.7363 11.5609C23.8598 11.3244 24.1195 11.2425 24.369 11.3525C24.6244 11.4649 24.7113 11.6997 24.5878 11.9363L21.8924 17.0945C21.8553 17.0809 21.8179 17.0679 21.7803 17.0557C21.7056 17.0315 21.6299 17.0107 21.5539 16.9936C21.5158 16.9848 21.4777 16.977 21.4396 16.9702H21.4393C21.4009 16.9633 21.3626 16.9572 21.3242 16.9521H21.3239C21.2853 16.9467 21.2467 16.9425 21.2078 16.9391C21.0848 16.9279 20.9605 16.9257 20.835 16.932C20.4579 16.9513 20.08 17.0506 19.7123 17.2275C19.5471 17.3069 19.4625 17.5258 19.5235 17.7162C19.5659 17.8491 19.6683 17.9332 19.7824 17.9447C19.8317 17.9498 19.8833 17.9413 19.9331 17.9171C20.2302 17.7744 20.5341 17.6942 20.836 17.6786C20.8726 17.6766 20.9092 17.6761 20.9453 17.6769C21.2815 17.6842 21.6009 17.8003 21.8955 17.9386C21.9343 17.9569 21.9727 17.9755 22.0106 17.9943C22.0108 17.9943 22.0111 17.9945 22.0113 17.9945C22.0454 18.0116 22.0825 18.0212 22.1201 18.0246C22.2931 18.0568 22.4779 18.0143 22.6949 17.8508L24.3965 16.5425C24.6295 16.3544 24.9118 16.3297 25.0966 16.5059C25.294 16.7011 25.2699 16.9477 25.0049 17.183L22.5076 19.4267C20.7852 20.976 19.1123 21.1124 17.4151 20.3646L17.3945 20.3551C17.7162 19.4326 17.675 18.3481 17.2136 17.1742L16.1844 14.5561L18.1424 10.809C18.2631 10.5778 18.5136 10.4852 18.769 10.5979H18.7688Z" fill="#DEFFE4"/>
<path d="M17.2128 17.1745C17.6743 18.3484 17.7154 19.4329 17.3937 20.3554C17.3792 20.3974 17.3637 20.4387 17.3475 20.4798C17.3404 20.4986 17.333 20.5171 17.3254 20.5357C17.2405 20.7427 17.1366 20.9409 17.0146 21.1293C16.4825 21.9501 15.604 22.5869 14.435 22.9662C12.2033 23.6902 10.2047 23.0981 8.5125 21.2116L6.27574 18.7223C5.71363 18.0928 5.73422 17.4171 6.30751 16.9844C6.82007 16.5973 7.49399 16.6386 8.0063 17.1413L8.7806 17.9293C8.80245 17.9481 8.82812 17.9591 8.85353 17.9511C8.8853 17.9408 8.88885 17.9137 8.87742 17.8849L7.06174 13.2649C6.79669 12.591 7.09426 12.0206 7.80427 11.7902C8.06424 11.7059 8.33055 11.7103 8.56714 11.8026C8.41848 11.1883 8.69445 10.6898 9.32213 10.486C9.9371 10.2866 10.5155 10.5209 10.8324 11.0546C10.9343 10.8594 11.133 10.7103 11.3614 10.636C12.0206 10.4222 12.6214 10.6952 12.8727 11.3344L13.124 11.9739C13.2318 11.7572 13.4513 11.5881 13.724 11.4999C14.3834 11.2861 15.0141 11.5815 15.2678 12.2264L15.7595 13.4775L16.1836 14.5564L17.2128 17.1745ZM11.2369 16.6127C11.3162 16.8143 11.1998 17.0271 10.978 17.0995C10.7625 17.1694 10.5112 17.0755 10.4319 16.8739L8.81745 12.7671C8.72012 12.5194 8.47057 12.4118 8.21061 12.4964C7.94429 12.5826 7.83248 12.8072 7.92981 13.055L10.1577 18.723C10.2619 18.9879 10.1528 19.2377 9.88653 19.3239C9.65833 19.398 9.43191 19.3677 9.17271 19.1267L7.62207 17.6554C7.41064 17.445 7.13263 17.3922 6.92985 17.5491C6.71232 17.7233 6.70953 17.9711 6.94789 18.2316L9.18846 20.7129C10.7343 22.4261 12.383 22.7291 14.1519 22.1551C15.1046 21.846 15.807 21.3524 16.2301 20.7095C16.3915 20.4644 16.5122 20.1973 16.5907 19.9106C16.7917 19.1773 16.717 18.3142 16.3396 17.3539L15.6474 15.5932L15.221 14.5082L14.4625 12.5787C14.3674 12.3368 14.1283 12.2193 13.862 12.3058C13.602 12.3903 13.4798 12.6247 13.5748 12.8666L14.663 15.6343L14.7318 15.8102C14.8157 16.0233 14.682 16.229 14.4792 16.2948C14.4653 16.2992 14.4513 16.3031 14.4373 16.3063C14.2317 16.3539 14.005 16.2706 13.9268 16.0714L12.1967 11.6704C12.0994 11.4229 11.8626 11.3115 11.6026 11.3955C11.3363 11.4823 11.2181 11.7088 11.3154 11.9566L12.9299 16.0636C13.0137 16.2767 12.8801 16.4825 12.6709 16.5501C12.4552 16.6203 12.2021 16.5399 12.1185 16.3268L10.2232 11.5055C10.1282 11.2638 9.88043 11.1429 9.61411 11.2291C9.3605 11.3115 9.24691 11.5497 9.34195 11.7916L11.2369 16.6127Z" fill="#93C19B"/>
</svg>
