<svg width="32" height="32" viewBox="0 0 32 32" fill="none" xmlns="http://www.w3.org/2000/svg">
<path opacity="0.21" fill-rule="evenodd" clip-rule="evenodd" d="M0 16V22C0 27.5228 4.47715 32 10 32H16H22C27.5228 32 32 27.5228 32 22V16V10C32 4.47715 27.5228 0 22 0H16H10C4.47715 0 0 4.47715 0 10V16Z" fill="#E7D7FF"/>
<path d="M9.97351 18.1658C9.36912 17.3806 9.06693 16.988 9.06693 15.8222C9.06693 14.6564 9.36912 14.2638 9.97351 13.4786C11.1803 11.9108 13.2042 10.1333 16.178 10.1333C19.1518 10.1333 21.1757 11.9108 22.3826 13.4786C22.9869 14.2638 23.2891 14.6564 23.2891 15.8222C23.2891 16.988 22.9869 17.3806 22.3826 18.1658C21.1757 19.7336 19.1518 21.5111 16.178 21.5111C13.2042 21.5111 11.1803 19.7336 9.97351 18.1658Z" stroke="#8B67C2" stroke-width="2"/>
<path d="M18.3117 15.8223C18.3117 17.0005 17.3566 17.9556 16.1784 17.9556C15.0001 17.9556 14.0451 17.0005 14.0451 15.8223C14.0451 14.6441 15.0001 13.689 16.1784 13.689C17.3566 13.689 18.3117 14.6441 18.3117 15.8223Z" stroke="#8B67C2" stroke-width="2"/>
</svg>
