<svg width="931" height="1077" viewBox="0 0 931 1077" fill="none" xmlns="http://www.w3.org/2000/svg">
<path d="M930.999 637.04C930.999 794.897 831.835 931.735 686.934 999.117C625.681 1027.6 556.256 1043.69 482.7 1043.69C358.004 1043.69 242.745 1009.97 161.502 935.416V935.391C81.4282 861.964 34.4214 748.481 34.4214 637.04C34.4214 412.456 235.13 230.412 482.696 230.412C730.262 230.412 930.999 412.456 930.999 637.04Z" fill="#F3E1FF"/>
<path d="M296.561 706.109L214.802 866.541C214.802 866.541 119.776 799.28 65.1052 718.669C55.4126 704.362 46.7566 689.498 39.3672 674.537C2.03282 599.148 -3.8642 521.596 45.5829 503.814C88.6368 488.337 114.81 572.863 188.866 641.476C216.786 667.365 251.539 690.971 296.561 706.113V706.109Z" fill="#9776D8"/>
<g opacity="0.2">
<path d="M296.561 706.109L214.802 866.541C214.802 866.541 119.776 799.28 65.1052 718.669C55.4126 704.362 46.7566 689.498 39.3672 674.537C99.5596 740.486 178.08 783.286 202.447 748.174C233.009 704.103 188.862 642.666 188.862 641.472C216.782 667.361 251.535 690.967 296.557 706.109H296.561Z" fill="#281A71"/>
</g>
<g opacity="0.6">
<path d="M39.3713 537.691C98.6602 509.448 133.514 678.399 291.068 717.882L296.106 708.002C131.691 652.732 104.396 484.386 45.1312 505.711C13.6333 517.048 4.59016 552.619 11.8183 596.432C16.2834 576.043 20.5751 546.642 39.3754 537.687L39.3713 537.691Z" fill="white"/>
</g>
<path d="M214.802 876.477C212.769 876.477 210.76 875.851 209.066 874.653C208.078 873.954 184.53 857.23 153.899 830.299C125.556 805.382 85.7165 766.755 56.8929 724.238C35.019 691.968 18.3646 657.163 8.73251 623.585C-1.36343 588.381 -2.73483 557.587 4.76754 534.527C11.1768 514.832 24.1325 500.977 42.231 494.463C57.7561 488.874 72.8092 492.792 88.2415 506.429C100.713 517.455 112.983 534.159 127.185 553.503C162.233 601.231 210.228 666.595 299.728 696.681C302.467 697.602 304.669 699.668 305.758 702.344C306.851 705.019 306.722 708.038 305.411 710.613L223.643 871.049C222.332 873.619 219.973 875.492 217.173 876.182C216.387 876.376 215.588 876.473 214.798 876.473L214.802 876.477ZM55.6949 511.886C53.1659 511.886 50.9555 512.443 48.9509 513.165C36.4913 517.649 28.2185 526.649 23.6525 540.681C10.8219 580.115 31.2477 651.008 73.3295 713.083C100.931 753.796 139.403 791.091 166.815 815.205C185.466 831.611 201.673 844.311 211.276 851.584L282.589 711.662C244.674 697.331 210.958 675.974 179.815 646.605C150.846 619.287 128.855 589.337 111.184 565.276C97.6558 546.852 85.9747 530.943 75.0962 521.33C66.8477 514.041 60.6602 511.89 55.699 511.89L55.6949 511.886Z" fill="#281A71"/>
<path d="M87.2453 755.241C83.4537 755.241 80.3197 752.23 80.1946 748.413C79.513 727.842 82.6995 707.502 89.6694 687.956C95.2236 672.374 103.178 657.272 113.306 643.07C130.545 618.903 148.051 605.751 148.785 605.202C151.915 602.873 156.336 603.527 158.663 606.655C160.986 609.782 160.341 614.202 157.215 616.53C157.05 616.655 140.476 629.166 124.515 651.666C103.339 681.515 93.1746 713.906 94.2999 747.944C94.429 751.843 91.3756 755.108 87.4792 755.237C87.3985 755.237 87.3219 755.237 87.2412 755.237L87.2453 755.241Z" fill="#281A71"/>
<path d="M682.3 983.038C682.082 986.517 681.824 989.931 681.485 993.253C627.665 1020.22 566.642 1035.44 502.001 1035.44C392.418 1035.44 310.581 1024.68 202.45 953.69C202.45 953.69 204.257 908.327 218.835 853.206C230.491 809.192 250.272 758.982 283.754 720.691C300.276 701.815 320.137 685.817 344.007 674.928C373.517 661.417 409.145 655.714 452.178 661.893C549.685 675.901 700.495 675.982 682.304 983.034L682.3 983.038Z" fill="#9776D8"/>
<g opacity="0.6">
<path d="M391.05 744.659C391.05 744.659 329.983 749.986 296.561 738.916C296.561 738.916 218.338 836.361 202.45 953.694C202.45 953.694 204.257 908.331 218.835 853.21C230.491 809.196 250.272 758.986 283.754 720.695C300.276 701.819 320.137 685.821 344.007 674.932C351.276 678.787 356.656 682.165 358.463 684.251C365.276 692.06 391.05 744.655 391.05 744.655V744.659Z" fill="white"/>
</g>
<g opacity="0.2">
<path d="M682.3 983.038C682.082 986.517 681.824 989.931 681.485 993.253C627.665 1020.22 566.642 1035.44 502.001 1035.44C392.418 1035.44 310.581 1024.68 202.45 953.69C202.45 953.69 204.257 908.327 218.835 853.206C240.422 904.889 284.726 951.821 373.355 959.889C584.019 979.043 573.79 804.046 573.79 804.046C417.72 813.127 331.293 768.478 283.75 720.69C320.705 678.448 374.347 650.71 452.174 661.897C549.681 675.905 700.491 675.986 682.3 983.038Z" fill="#281A71"/>
</g>
<path d="M479.256 1045.73C450.234 1045.73 412.706 1043.89 371.04 1035.77C305.906 1023.06 247.235 998.16 196.65 961.753C193.96 959.816 192.415 956.668 192.524 953.355C192.584 951.539 194.177 908.283 207.742 854.417C215.741 822.659 226.264 793.844 239.03 768.765C255.173 737.048 274.981 711.214 297.904 691.98C339.877 656.759 392.252 643.332 453.574 652.066C459.269 652.877 465.078 653.632 471.229 654.431C495.382 657.57 522.757 661.126 549.346 669.274C580.445 678.803 605.465 693.077 625.83 712.918C678.266 763.999 699.979 852.548 692.218 983.619C692.218 983.627 692.218 983.632 692.218 983.64C691.972 987.651 691.694 991.126 691.371 994.266C691.024 997.644 688.975 1000.61 685.942 1002.13C632.679 1028.82 570.897 1043.37 502.303 1045.38C495.414 1045.59 487.694 1045.74 479.26 1045.74L479.256 1045.73ZM212.659 948.758C329.66 1030.56 458.89 1026.77 501.714 1025.52C565.267 1023.65 622.555 1010.63 672.091 986.792C672.196 985.423 672.292 983.979 672.385 982.445C679.787 857.476 660.022 773.971 611.967 727.152C571.228 687.464 516.739 680.381 468.663 674.133C462.452 673.326 456.583 672.563 450.767 671.736C395.289 663.838 348.166 675.756 310.702 707.167C263.232 746.972 239.034 811.617 227.099 858.84C216.656 900.151 213.51 935.747 212.655 948.758H212.659Z" fill="#281A71"/>
<path d="M768.964 937.934C738.225 998.576 544.619 1030.43 544.619 1030.43C522.277 1061.97 496.023 1069.4 474.992 1061.01C457.555 1054.08 443.716 1036.27 438.67 1012.35C434.56 992.954 436.266 969.526 446.536 944.609C476.779 871.25 642.702 871.25 642.702 871.25L640.936 857.359L629.537 767.587C638.096 760.532 646.296 755.285 654.142 751.669C748.728 707.715 790.116 896.224 768.964 937.93V937.934Z" fill="#9776D8"/>
<g opacity="0.2">
<path d="M768.964 937.934C738.225 998.576 544.619 1030.43 544.619 1030.43C522.277 1061.97 496.023 1069.4 474.992 1061.01C457.555 1054.08 443.716 1036.27 438.67 1012.35C502.303 1087.63 564.319 957.334 564.319 957.334C574.221 974.793 562.306 999.912 562.306 999.912C743.835 964.861 761.038 901.551 733.792 835.122C706.565 768.717 655.747 758.482 655.747 758.482L654.138 751.665C748.724 707.711 790.112 896.22 768.96 937.926L768.964 937.934Z" fill="#5B2A6B"/>
<path d="M491.514 1065.21C485.758 1065.21 480.074 1064.13 474.621 1061.95C456.494 1054.74 442.688 1036.27 437.686 1012.56L436.859 1008.65L439.441 1011.7C453.961 1028.88 469.571 1036.53 485.834 1034.42C508.152 1031.53 528.029 1010.66 540.775 993.669C554.663 975.152 563.323 957.088 563.407 956.906L564.238 955.159L565.194 956.842C573.818 972.041 566.549 992.422 564 998.56C612.899 989.003 652.145 976.807 680.662 962.302C706.771 949.024 724.87 933.293 734.449 915.547C746.397 893.423 745.876 867.243 732.86 835.509C718.912 801.491 698.64 782.632 684.087 772.801C668.315 762.146 655.674 759.499 655.549 759.475L654.916 759.346L652.968 751.1L653.714 750.753C667.755 744.227 681.38 742.468 694.203 745.523C705.775 748.279 716.734 754.951 726.773 765.351C745.8 785.062 761.49 818.595 769.815 857.351C777.253 891.966 777.269 923.776 769.86 938.386C762.749 952.41 746.445 966.031 721.397 978.865C701.459 989.08 675.939 998.847 645.546 1007.89C596.381 1022.51 550.048 1030.53 545.192 1031.35C534.507 1046.33 522.56 1056.52 509.681 1061.62C503.659 1064.01 497.544 1065.21 491.51 1065.21L491.514 1065.21ZM440.574 1016.04C446.06 1037.21 458.866 1053.51 475.367 1060.07C480.611 1062.16 485.992 1063.19 491.413 1063.19C509.717 1063.19 528.449 1051.51 543.8 1029.85L544.042 1029.51L544.458 1029.44C544.942 1029.36 593.409 1021.31 644.998 1005.95C675.269 996.946 700.668 987.231 720.493 977.073C745.15 964.441 761.155 951.119 768.069 937.482C775.172 923.478 775.083 891.45 767.851 857.783C759.602 819.386 744.101 786.208 725.329 766.759C704.722 745.41 681.17 740.531 655.315 752.247L656.59 757.642C659.389 758.308 670.877 761.46 685.131 771.07C699.942 781.054 720.574 800.208 734.732 834.747C747.994 867.077 748.482 893.823 736.232 916.512C726.451 934.625 708.066 950.639 681.582 964.106C652.532 978.881 612.467 991.263 562.504 1000.91L560.547 1001.29L561.399 999.488C561.511 999.25 572.208 976.27 564.339 959.57C561.782 964.623 553.856 979.588 542.413 994.851C534.176 1005.84 525.746 1014.84 517.364 1021.6C506.817 1030.11 496.301 1035.1 486.101 1036.42C470.12 1038.49 454.82 1031.64 440.578 1016.05L440.574 1016.04Z" fill="#281A71"/>
</g>
<g opacity="0.6">
<path d="M477.755 938.172C454.925 965.725 449.932 1028.46 474.996 1061.01C443.442 1048.45 422.931 999.969 446.539 944.609C476.775 873.704 642.706 871.25 642.706 871.25C642.706 871.25 691.399 862.561 697.482 875.335C697.482 875.335 515.755 892.309 477.759 938.172H477.755Z" fill="white"/>
</g>
<path d="M642.073 874.471C638.072 874.471 634.599 871.493 634.079 867.416L621.805 770.791C621.244 766.368 624.37 762.328 628.791 761.767C633.212 761.206 637.249 764.334 637.81 768.757L650.084 865.382C650.644 869.806 647.518 873.845 643.098 874.406C642.751 874.451 642.408 874.471 642.069 874.471H642.073Z" fill="#281A71"/>
<path d="M487.186 1077C478.513 1077 470.035 1074.99 462.057 1071C445.41 1062.67 432.854 1046.53 426.699 1025.55C420.225 1003.5 421.298 977.864 429.8 951.426C436.512 930.561 452.416 912.839 477.082 898.75C495.89 888.007 519.934 879.298 548.544 872.865C596.611 862.057 640.71 861.334 642.565 861.31C642.61 861.31 642.658 861.31 642.702 861.31C648.124 861.31 652.552 865.669 652.629 871.109C652.706 876.594 648.321 881.106 642.836 881.178C642.267 881.187 598.616 881.933 552.601 892.317C511.806 901.523 460.669 920.31 448.706 957.512C441.429 980.141 440.409 1001.73 445.753 1019.95C450.339 1035.58 459.282 1047.39 470.942 1053.23C491.913 1063.73 516.425 1053.05 536.512 1024.68C538.073 1022.47 540.464 1021 543.135 1020.6C544.809 1020.34 711.341 994.532 761.192 931.751C765.85 925.883 768.581 900.558 760.062 862.63C751.555 824.746 735.341 791.176 716.69 772.833C692.799 749.337 666.355 750.128 635.841 775.251C631.606 778.738 625.35 778.128 621.865 773.891C618.38 769.653 618.989 763.393 623.225 759.906C643.336 743.348 663.273 735.312 682.481 736.019C699.793 736.656 715.988 744.276 730.613 758.659C752.193 779.884 769.989 816.19 779.439 858.271C786.417 889.339 789.37 928.204 776.741 944.109C763.769 960.446 743.347 975.673 716.044 989.366C694.727 1000.06 669.074 1009.92 639.798 1018.67C598.495 1031.02 562.213 1037.58 550.226 1039.58C537.75 1056.13 523.213 1067.73 507.986 1073.23C501.029 1075.74 494.051 1077 487.194 1077L487.186 1077Z" fill="#281A71"/>
<path d="M642.283 863.187C643.505 862.884 644.671 862.699 645.865 862.529C647.05 862.36 648.236 862.251 649.422 862.154C651.798 861.972 654.174 861.92 656.553 861.964C658.933 862.008 661.313 862.142 663.693 862.368C664.883 862.481 666.073 862.618 667.263 862.763L669.045 862.977L670.828 863.219C675.584 863.881 680.339 864.733 685.067 865.814C687.434 866.387 689.786 866.964 692.133 867.683C694.477 868.365 696.812 869.176 699.111 870.096C699.732 870.346 700.035 871.049 699.785 871.67C699.64 872.037 699.333 872.292 698.982 872.389L698.95 872.397C696.562 873.038 694.211 873.531 691.859 874.043C689.516 874.532 687.172 875.008 684.845 875.436C680.178 876.323 675.539 877.102 670.905 877.805L669.166 878.075L667.428 878.321C666.27 878.479 665.113 878.664 663.955 878.81C661.64 879.1 659.325 879.346 657.009 879.508C654.694 879.669 652.375 879.762 650.055 879.75C647.744 879.726 645.393 879.649 643.114 879.306L643.013 879.29C638.528 878.608 635.442 874.419 636.124 869.931C636.636 866.545 639.153 863.958 642.279 863.183L642.283 863.187Z" fill="#281A71"/>
<path d="M615.206 1021.33C613.189 1021.33 611.213 1020.32 610.067 1018.48C608.296 1015.64 609.164 1011.91 611.995 1010.14C612.092 1010.08 622.583 1003.41 632.393 991.118C645.248 975.023 650.983 957.294 649.447 938.422C647.825 918.542 639.847 902.637 625.737 891.143C615.032 882.426 604.582 879.588 604.477 879.56C601.254 878.705 599.318 875.403 600.165 872.175C601.008 868.946 604.291 867.009 607.522 867.84C608.034 867.973 620.224 871.198 632.921 881.38C644.643 890.78 659.119 908.134 661.511 937.434C663.294 959.316 656.4 980.613 641.569 999.02C630.481 1012.79 618.893 1020.1 618.404 1020.41C617.408 1021.03 616.299 1021.33 615.206 1021.33V1021.33Z" fill="#281A71"/>
<path d="M699.289 655.512C690.008 675.203 679.238 690.854 667.004 700.737C595.252 758.688 341.071 698.251 308.064 532.109C304.85 515.966 304.7 497.082 306.955 476.552C319.451 362.823 406.011 197.617 460.927 159.77C509.721 126.147 627.31 153.607 690.496 219.895C707.017 237.225 719.824 257.21 726.713 279.456C731.029 293.411 734.437 309.857 736.918 328.079C750.309 426.076 737.333 574.788 699.293 655.512H699.289Z" fill="#7F67BA"/>
<path d="M592.166 726.615C549.641 727.414 504.937 719.282 465.005 703.365C433.116 690.652 405.712 673.609 383.556 652.707C358.463 629.033 340.752 600.896 330.91 569.077C322.867 543.075 321.173 508.476 325.876 466.249C329.938 429.765 338.836 388.2 351.602 346.05C363.642 306.298 378.421 268.131 394.334 235.671C410.798 202.089 427.324 177.103 442.127 163.418C456.268 150.346 477.751 141.863 504.259 138.892C529.53 136.059 557.728 138.299 585.813 145.374C615.278 152.796 642.771 165.174 665.318 181.167C691.113 199.466 709.748 221.743 720.711 247.387C735.32 281.558 746.364 333.184 751.809 392.757C757.239 452.172 756.525 513.201 749.805 564.593C742.089 623.593 726.882 666.695 705.831 689.243C695.772 700.015 681.461 708.708 663.294 715.081C646.054 721.126 626.108 724.851 604.021 726.151C600.096 726.381 596.139 726.534 592.17 726.607L592.166 726.615ZM521.866 157.578C490.473 158.167 463.654 166.065 448.024 180.518C420.846 205.649 386.553 275.448 362.694 354.211C350.433 394.69 341.91 434.41 338.05 469.078C333.818 507.055 335.158 537.574 342.031 559.783C358.859 614.19 403.728 658.341 468.373 684.11C507.321 699.632 550.935 707.562 592.42 706.787C596.301 706.714 600.153 706.565 603.989 706.339C647.01 703.809 681.711 691.612 699.2 672.878C717.367 653.418 730.678 614.791 737.692 561.179C750.862 460.514 738.628 324.951 710.421 258.982C691.807 215.448 644.352 180.304 583.474 164.972C562.229 159.62 541.178 157.215 521.862 157.578H521.866Z" fill="#281A71"/>
<path d="M231.593 366.694C232.524 398.338 228.362 466.911 179.592 505.19C172.251 510.954 162.365 512.382 153.737 508.827C128.935 498.608 81.6661 468.933 106.214 396.292C127.665 332.813 185.062 337.712 213.696 344.65C223.933 347.132 231.282 356.152 231.593 366.69V366.694Z" fill="#9776D8"/>
<g opacity="0.6">
<path d="M122.671 409.07C144.121 345.59 201.518 350.49 230.153 357.427C230.29 357.46 230.423 357.508 230.56 357.544C227.619 351.224 221.92 346.373 214.833 344.654C186.199 337.716 128.802 332.817 107.352 396.296C88.2488 452.83 112.64 483.333 136.091 498.899C119.259 481.198 107.828 452.999 122.675 409.07H122.671Z" fill="white"/>
</g>
<path d="M188.958 507.144C184.888 510.344 180.02 512.213 175.018 512.628H174.998C150.414 497.982 121.675 467.306 141.951 407.298C160.042 353.787 203.652 348.859 234.057 352.794C238.208 356.887 240.769 362.512 240.946 368.651C241.878 400.304 237.728 468.876 188.954 507.144H188.958Z" fill="#7F67BA"/>
<path d="M163.498 520.692C158.916 520.692 154.314 519.812 149.954 518.016C135.869 512.213 116.326 501.167 103.205 481.484C95.8117 470.39 91.3385 457.818 89.9147 444.117C88.3013 428.579 90.6165 411.418 96.8039 393.116C102.338 376.739 110.55 363.324 121.211 353.25C130.524 344.448 141.742 338.144 154.552 334.512C177.2 328.091 200.486 331.231 216.031 335C230.596 338.528 241.075 351.442 241.515 366.403C242.015 383.378 241.083 409.239 233.811 436.057C224.848 469.106 208.666 494.996 185.719 513.012C179.274 518.069 171.416 520.696 163.498 520.696V520.692ZM182.053 350.522C155.306 350.522 128.455 361.495 115.62 399.476C94.2225 462.794 132.686 489.41 157.517 499.641C162.801 501.817 168.907 500.949 173.465 497.373C219.379 461.333 222.473 394.181 221.67 366.984C221.493 360.947 217.253 355.736 211.36 354.308C202.103 352.064 192.084 350.522 182.053 350.522Z" fill="#281A71"/>
<path d="M797.126 683.759C786.522 704.604 772.82 721.591 755.722 732.996C655.456 799.877 248.763 771.187 165.277 609.226C157.154 593.49 153.261 574.631 152.785 553.826C150.164 438.579 252.656 262.63 330.66 217.942C399.968 178.242 588.012 191.019 699.043 249.397C728.076 264.656 751.846 283.035 766.863 304.417C776.277 317.828 784.755 333.846 792.145 351.749C831.944 448.039 840.6 598.317 797.13 683.759H797.126Z" fill="#9776D8"/>
<g opacity="0.2">
<path d="M797.38 683.226C798.623 680.764 799.833 678.254 800.99 675.687C801.059 675.534 801.123 675.38 801.192 675.227C802.321 672.709 803.406 670.134 804.455 667.523C804.56 667.256 804.673 666.994 804.778 666.728C805.839 664.056 806.851 661.332 807.827 658.567C807.956 658.196 808.085 657.825 808.214 657.453C810.175 651.819 811.962 646.008 813.587 640.039C813.692 639.651 813.797 639.268 813.902 638.881C814.7 635.89 815.463 632.871 816.181 629.808C816.225 629.626 816.261 629.441 816.306 629.259C817.016 626.2 817.685 623.109 818.318 619.981C818.355 619.803 818.391 619.634 818.427 619.456C819.061 616.288 819.649 613.08 820.202 609.847C820.263 609.488 820.323 609.129 820.384 608.765C821.477 602.239 822.412 595.593 823.183 588.849C823.219 588.522 823.259 588.191 823.296 587.864C823.675 584.482 824.018 581.08 824.316 577.657C824.332 577.488 824.344 577.314 824.361 577.145C824.663 573.642 824.929 570.122 825.151 566.579C825.151 566.563 825.151 566.551 825.151 566.535C825.369 563.024 825.547 559.496 825.684 555.953C825.696 555.618 825.708 555.283 825.72 554.952C825.986 547.881 826.095 540.754 826.055 533.594C826.055 533.324 826.055 533.05 826.055 532.779C826.031 529.207 825.966 525.632 825.869 522.052C825.865 521.838 825.857 521.624 825.849 521.414C825.639 514.19 825.28 506.946 824.776 499.71C824.752 499.351 824.728 498.995 824.699 498.636C824.183 491.457 823.53 484.285 822.735 477.146C822.703 476.851 822.671 476.552 822.638 476.258C822.243 472.747 821.811 469.239 821.348 465.748C821.303 465.418 821.259 465.083 821.21 464.752C820.267 457.741 819.194 450.776 817.988 443.882C817.907 443.422 817.826 442.966 817.746 442.506C817.145 439.108 816.515 435.722 815.85 432.364C815.822 432.215 815.789 432.066 815.757 431.916C815.112 428.655 814.43 425.419 813.724 422.198C813.64 421.819 813.563 421.439 813.478 421.064C812.764 417.831 812.018 414.623 811.244 411.435C811.127 410.946 811.006 410.462 810.885 409.974C809.312 403.569 807.621 397.269 805.823 391.094C805.657 390.529 805.496 389.968 805.33 389.407C804.447 386.413 803.539 383.446 802.604 380.516C802.483 380.137 802.358 379.761 802.233 379.382C801.357 376.67 800.458 373.99 799.542 371.339C799.389 370.895 799.236 370.443 799.082 369.999C798.098 367.194 797.09 364.429 796.057 361.697C795.844 361.128 795.626 360.567 795.408 360.002C794.343 357.222 793.258 354.465 792.145 351.769C784.755 333.866 776.277 317.852 766.863 304.437C751.85 283.055 728.08 264.676 699.043 249.417C699.043 249.417 821.473 394.032 775.498 592.037C773.546 600.46 772.118 608.176 771.146 615.279C747.179 673.459 703.843 720.186 627.419 727.43C426.525 746.507 227.991 681.729 152.785 553.846C153.261 574.651 157.154 593.506 165.277 609.246C248.763 771.207 655.456 799.897 755.722 733.016C772.824 721.607 786.514 704.608 797.114 683.775C797.118 683.775 797.122 683.775 797.13 683.779C797.219 683.605 797.296 683.42 797.384 683.246L797.38 683.226Z" fill="#281A71"/>
</g>
<g opacity="0.6">
<path d="M342.152 242.54C429.566 192.456 705.94 225.9 778.358 329.019C783.211 335.929 787.805 343.552 792.137 351.753C784.739 333.862 776.281 317.816 766.867 304.417C694.449 201.298 418.075 167.857 330.66 217.938C238.546 270.71 112.305 506.47 165.273 609.217C166.866 612.313 168.597 615.352 170.42 618.346C135.683 509.133 254.398 292.81 342.148 242.536L342.152 242.54Z" fill="white"/>
</g>
<path d="M579.574 776.566C511.31 776.566 439.34 767.579 374.848 750.874C323.347 737.536 278.954 719.94 242.903 698.574C202.067 674.376 172.981 645.846 156.448 613.774C142.935 587.561 139.422 552.857 146.005 510.627C151.692 474.139 165.023 432.651 184.558 390.646C202.979 351.035 225.833 313.062 250.643 280.828C276.312 247.48 302.276 222.752 325.727 209.317C348.133 196.479 382.439 188.384 424.936 185.906C465.445 183.541 510.782 186.317 556.038 193.933C603.525 201.924 647.954 214.846 684.526 231.3C726.362 250.123 756.803 272.801 774.994 298.706C799.24 333.229 818.157 385.174 828.265 444.98C838.349 504.629 838.603 565.776 828.987 617.16C817.947 676.143 794.521 719.056 761.236 741.257C745.332 751.863 722.55 760.31 693.521 766.352C665.976 772.087 634.038 775.444 598.596 776.332C592.295 776.49 585.947 776.566 579.574 776.566ZM453.639 204.959C403.24 204.959 360.363 212.372 335.593 226.562C292.527 251.237 239.063 320.548 202.563 399.033C183.803 439.37 171.029 479.018 165.624 513.69C159.703 551.671 162.555 582.278 174.095 604.669C202.366 659.512 275.429 704.604 379.825 731.644C442.72 747.932 512.94 756.702 579.533 756.702C585.761 756.702 591.944 756.625 598.1 756.472C667.121 754.745 722.566 743.174 750.22 724.726C778.947 705.564 799.433 667.103 809.465 613.508C828.301 512.871 805.548 376.779 758.743 310.136C727.854 266.158 650.846 230.041 552.738 213.531C518.502 207.768 484.644 204.963 453.635 204.963L453.639 204.959Z" fill="#281A71"/>
<path d="M349.948 289.456C413.59 252.097 620.409 277.042 677.362 353.969C734.316 430.891 754.322 623.779 681.594 673.677C608.865 723.572 305.128 702.174 238.207 581.35C195.755 504.702 282.883 328.83 349.948 289.46V289.456Z" fill="white"/>
<path d="M551.411 699.785C504.893 699.785 455.393 694.07 410.044 683.355C369.551 673.79 334.452 660.823 305.717 644.813C273.553 626.89 250.542 605.702 237.324 581.835C227.18 563.52 223.816 538.954 227.321 508.823C230.423 482.186 238.982 451.825 252.079 421.028C264.466 391.897 280.14 363.982 297.408 340.299C315.07 316.081 333.06 298.198 349.432 288.585C364.917 279.496 389.279 273.741 419.882 271.949C449.512 270.21 482.861 272.256 516.324 277.857C551.387 283.729 584.309 293.201 611.527 305.256C642.15 318.817 664.568 335.004 678.165 353.363C717.419 406.386 738.741 512.903 725.688 590.814C719.025 630.599 703.972 659.536 682.158 674.501C661.265 688.836 621.482 697.698 570.143 699.462C563.968 699.672 557.712 699.781 551.411 699.781V699.785ZM349.948 289.456L350.457 290.328C318.084 309.333 279.293 362.173 253.934 421.819C240.914 452.442 232.403 482.61 229.326 509.057C225.869 538.76 229.152 562.919 239.087 580.858C263.76 625.405 324.638 661.11 410.504 681.394C461.827 693.517 518.498 699.22 570.074 697.452C621.038 695.705 660.438 686.967 681.021 672.846C702.37 658.2 717.129 629.719 723.7 590.487C736.676 513.044 715.52 407.213 676.548 354.57C663.164 336.494 641.012 320.524 610.716 307.105C583.651 295.119 550.895 285.695 515.997 279.851C482.684 274.274 449.488 272.235 420.007 273.967C389.719 275.743 365.671 281.401 350.461 290.328L349.952 289.456H349.948Z" fill="#281A71"/>
<g opacity="0.2">
<path d="M678.98 357.133C668.36 342.789 652.524 330.254 633.385 319.592C687.079 400.086 704.335 584.651 633.425 633.299C574.173 673.952 361.597 667.269 248.667 598.062C329.93 706.864 613.298 724.807 683.215 676.841C755.944 626.947 735.938 434.059 678.984 357.133H678.98Z" fill="#281A71"/>
</g>
<g opacity="0.6">
<path d="M361.259 313.772C423.314 277.341 621.478 300.163 684.115 372.638C680.501 366.185 676.693 360.2 672.696 354.8C615.742 277.878 408.927 252.928 345.282 290.288C278.22 329.657 191.088 505.529 233.541 582.178C237.554 589.426 242.443 596.307 248.057 602.845C209.166 524.796 294.996 352.669 361.255 313.772H361.259Z" fill="white"/>
</g>
<path d="M551.436 708.708C504.231 708.708 454.002 702.909 407.995 692.04C366.7 682.286 330.83 669.02 301.377 652.61C267.737 633.864 243.56 611.51 229.523 586.161C218.455 566.18 214.736 539.81 218.463 507.785C221.662 480.314 230.447 449.101 243.871 417.529C256.52 387.781 272.541 359.256 290.204 335.033C308.585 309.833 327.506 291.107 344.923 280.884C361.618 271.085 387.36 264.91 419.366 263.038C449.653 261.266 483.692 263.345 517.8 269.055C553.59 275.048 587.249 284.746 615.141 297.096C647.196 311.29 670.812 328.434 685.337 348.052C705.008 374.62 720.945 414.619 730.214 460.679C739.479 506.712 740.996 553.455 734.489 592.291C731.146 612.244 725.741 629.768 718.42 644.377C710.276 660.63 699.773 673.241 687.204 681.866C664.927 697.15 623.462 706.565 570.45 708.385C564.182 708.599 557.833 708.708 551.432 708.708H551.436ZM354.974 298.024C324.118 316.137 286.816 367.291 262.147 425.31C235.223 488.636 229.523 545.165 246.892 576.531C270.331 618.851 329.164 653.006 412.557 672.705C457.095 683.226 505.72 688.84 551.387 688.84C557.579 688.84 563.706 688.739 569.772 688.529C618.348 686.862 657.058 678.464 675.979 665.481C695.284 652.235 708.743 625.792 714.907 589.01C727.536 513.629 707.114 410.841 669.384 359.881C645.413 327.506 587.524 300.878 514.525 288.653C447.701 277.462 383.584 281.231 354.974 298.024Z" fill="#281A71"/>
<path d="M590.984 506.944C595.272 483.475 587.401 462.373 573.402 459.813C559.404 457.252 544.58 474.202 540.292 497.672C536.004 521.141 543.875 542.242 557.874 544.803C571.872 547.363 586.696 530.413 590.984 506.944Z" fill="#281A71"/>
<path d="M579.624 491.634C581.018 484.004 578.458 477.143 573.907 476.311C569.356 475.478 564.536 480.989 563.142 488.619C561.748 496.249 564.307 503.109 568.859 503.942C573.41 504.775 578.23 499.264 579.624 491.634Z" fill="white"/>
<path d="M392.061 460.803C396.349 437.334 388.477 416.233 374.479 413.672C360.48 411.111 345.656 428.061 341.368 451.531C337.08 475 344.952 496.102 358.95 498.662C372.949 501.223 387.773 484.273 392.061 460.803Z" fill="#281A71"/>
<path d="M380.696 445.492C382.091 437.862 379.531 431.002 374.98 430.169C370.428 429.337 365.608 434.847 364.214 442.477C362.82 450.108 365.38 456.968 369.931 457.8C374.483 458.633 379.302 453.122 380.696 445.492Z" fill="white"/>
<path d="M806.02 457.483C791.75 488.309 766.931 557.716 798.897 616.078C803.709 624.864 812.861 630.45 822.872 630.587C851.652 630.983 910.803 621.668 917.229 539.636C922.843 467.952 864.155 448.544 832.976 443.293C821.828 441.417 810.776 447.216 806.024 457.479L806.02 457.483Z" fill="#9776D8"/>
<g opacity="0.6">
<path d="M818.786 472.9C823.538 462.637 834.594 456.837 845.738 458.714C861.78 461.414 885.094 467.891 903.196 483.28C884.864 457.661 853.16 448.302 832.972 444.904C821.824 443.027 810.772 448.826 806.02 459.089C791.75 489.915 766.931 559.323 798.897 617.685C801.575 622.576 805.605 626.475 810.376 628.993C780.444 571.16 804.721 503.286 818.79 472.896L818.786 472.9Z" fill="white"/>
</g>
<path d="M824.566 640.535C823.945 640.535 823.332 640.531 822.731 640.523C809.199 640.338 796.727 632.803 790.185 620.853C775.22 593.53 770.206 561.304 775.285 525.075C779.411 495.634 789.374 469.796 797.009 453.306C803.62 439.027 819.085 430.883 834.618 433.498C851.458 436.335 875.627 443.031 895.141 458.831C906.157 467.75 914.49 478.615 919.919 491.122C926.139 505.453 928.559 522.036 927.123 540.411C925.514 560.973 920.589 578.783 912.493 593.341C905.366 606.154 895.73 616.583 883.855 624.34C863.546 637.605 840.733 640.531 824.566 640.531V640.535ZM815.027 461.656C802.717 488.248 777.35 556.066 807.601 611.304C810.711 616.982 816.612 620.566 823.001 620.651C823.53 620.659 824.066 620.663 824.603 620.663C853.854 620.663 901.776 609.645 907.318 538.861C911.981 479.337 868.564 459.364 831.318 453.096C824.582 451.958 817.883 455.485 815.023 461.66L815.027 461.656Z" fill="#281A71"/>
<path d="M911.997 548.648C916.086 515.845 908.01 487.832 893.957 486.078C879.905 484.324 865.198 509.494 861.109 542.297C857.02 575.1 865.096 603.114 879.148 604.868C893.201 606.621 907.908 581.451 911.997 548.648Z" fill="white"/>
<path d="M880.58 605.989C880.072 605.989 879.564 605.957 879.055 605.892C871.835 604.992 865.914 597.76 862.389 585.527C858.944 573.581 858.145 558.193 860.142 542.195C862.139 526.197 866.688 511.478 872.961 500.743C879.382 489.753 886.896 484.196 894.116 485.1C901.337 486 907.258 493.232 910.783 505.465C914.228 517.411 915.026 532.799 913.03 548.797C911.033 564.795 906.483 579.514 900.211 590.249C894.242 600.464 887.324 605.985 880.58 605.985V605.989ZM892.588 487.025C886.59 487.025 880.29 492.199 874.699 501.764C868.56 512.265 864.103 526.713 862.139 542.445C860.178 558.177 860.953 573.279 864.321 584.97C867.608 596.375 872.928 603.095 879.301 603.89C885.674 604.685 892.479 599.479 898.469 589.232C904.608 578.731 909.065 564.283 911.029 548.547C912.989 532.816 912.215 517.714 908.847 506.022C905.56 494.617 900.239 487.897 893.866 487.102C893.443 487.049 893.015 487.021 892.588 487.021V487.025Z" fill="#281A71"/>
<g opacity="0.2">
<path d="M896.738 476.213C896.738 479.196 896.654 482.243 896.408 485.427C889.982 567.459 830.834 576.774 802.051 576.378C795.146 576.285 788.648 573.593 783.703 569.049C785.356 585.527 789.826 602.183 798.502 618.028C803.314 626.814 812.466 632.399 822.477 632.536C851.256 632.932 910.408 623.617 916.833 541.585C919.189 511.535 910.222 490.698 896.738 476.213Z" fill="#281A71"/>
</g>
<path d="M880.516 614.056C879.62 614.056 878.793 613.996 878.055 613.903C871.9 613.136 860.675 608.717 854.636 587.767C850.897 574.796 850.01 558.257 852.136 541.198C854.261 524.139 859.186 508.326 865.995 496.671C876.994 477.848 888.962 476.326 895.113 477.093C901.268 477.86 912.493 482.279 918.532 503.229C922.271 516.2 923.158 532.739 921.032 549.798C918.907 566.858 913.982 582.67 907.173 594.325C897.497 610.884 887.07 614.056 880.516 614.056ZM892.58 495.097C887.441 495.097 874.211 510.824 870.145 543.446C865.999 576.689 875.385 595.27 880.302 595.883C880.395 595.895 880.491 595.899 880.588 595.899C885.727 595.899 898.957 580.168 903.023 547.55C904.826 533.09 904.124 518.771 901.095 508.262C898.606 499.621 895.085 495.392 892.866 495.113C892.773 495.101 892.677 495.097 892.58 495.097Z" fill="#281A71"/>
<path d="M394.91 529.631L496.688 550.597C496.688 550.597 490.566 617.261 428.913 602.619C374.15 589.612 394.914 529.631 394.914 529.631H394.91Z" fill="#281A71"/>
<path d="M465.893 591.623C467.565 582.473 455.81 572.658 439.638 569.7C423.466 566.742 409 571.761 407.329 580.911C405.657 590.06 417.412 599.876 433.584 602.834C449.756 605.792 464.221 600.773 465.893 591.623Z" fill="#FF579A"/>
<path d="M445.717 614.67C439.687 614.67 433.314 613.875 426.618 612.285C408.737 608.039 395.854 598.926 388.324 585.208C374.283 559.625 385.06 527.722 385.528 526.378C387.158 521.665 392.03 518.892 396.915 519.901L498.693 540.867C503.646 541.888 507.043 546.469 506.579 551.505C506.446 552.942 503.061 586.924 478.582 604.524C469.184 611.28 458.18 614.67 445.721 614.67H445.717ZM402.239 541.283C400.602 550.153 399.505 564.372 405.769 575.72C410.556 584.389 418.878 590.027 431.2 592.953C445.842 596.432 457.858 594.915 466.909 588.445C477.795 580.668 482.866 567.201 485.124 558.362L402.235 541.287L402.239 541.283Z" fill="#281A71"/>
<path d="M594.046 147.852C594.635 146.177 595.244 144.514 595.885 142.86C596.224 141.984 596.571 141.112 596.93 140.244C597.083 139.865 597.224 139.449 597.41 139.09C596.93 140.018 597.043 139.958 597.438 139.054C598.898 135.708 600.475 132.415 602.165 129.182C605.497 122.806 609.272 116.659 613.443 110.795C614.472 109.35 615.524 107.926 616.597 106.513C616.835 106.198 617.473 105.238 616.452 106.703C616.686 106.364 616.972 106.041 617.227 105.718C617.876 104.903 618.529 104.092 619.195 103.284C621.454 100.548 623.801 97.8886 626.237 95.3097C631.247 90.0026 636.624 85.0386 642.315 80.47C642.642 80.2077 642.969 79.9494 643.295 79.6911C643.481 79.5418 644.901 78.4602 643.941 79.1866C643.049 79.8606 644.13 79.0494 644.348 78.8839C644.848 78.5086 645.348 78.1333 645.853 77.762C647.45 76.5876 649.067 75.4454 650.705 74.3315C654.158 71.9908 657.707 69.7993 661.337 67.7411C664.967 65.6828 666.702 60.1416 664.302 56.4206C661.902 52.6996 657.017 51.166 652.988 53.4543C626.125 68.6895 603.613 91.7259 588.923 118.899C584.668 126.769 581.07 135.018 578.109 143.457C576.673 147.545 579.735 152.691 583.885 153.635C588.508 154.689 592.521 152.235 594.058 147.856L594.046 147.852Z" fill="#281A71"/>
<path d="M671.808 0C666.42 0 661.168 1.00088 656.199 2.97843C648.406 6.07389 641.759 11.3689 636.975 18.2862C632.066 25.3852 629.472 33.7111 629.472 42.3639C629.472 65.7231 648.462 84.7237 671.808 84.7237C689.504 84.7237 705.484 73.5526 711.567 56.9291L712.281 54.9758V54.8022C713.515 50.7785 714.14 46.6055 714.14 42.3639C714.14 19.0046 695.15 0.00403581 671.808 0.00403581V0ZM700.584 52.8973C696.288 64.6375 685.026 73.0159 671.808 73.0159C654.888 73.0159 641.17 59.2901 641.17 42.3598C641.17 29.421 649.184 18.3549 660.515 13.8549C664.008 12.4666 667.819 11.7038 671.808 11.7038C688.725 11.7038 702.443 25.4296 702.443 42.3598C702.443 46.0607 701.786 49.6082 700.584 52.8973Z" fill="#281A71"/>
<path d="M702.443 42.3599C702.443 46.0607 701.786 49.6082 700.584 52.8974C696.288 64.6375 685.026 73.0159 671.808 73.0159C654.888 73.0159 641.17 59.2901 641.17 42.3599C641.17 29.4211 649.184 18.3549 660.515 13.8549C664.008 12.4666 667.819 11.7039 671.808 11.7039C688.725 11.7039 702.443 25.4296 702.443 42.3599Z" fill="#97CDF9"/>
<path d="M701.245 42.9168C701.245 46.6176 700.588 50.1651 699.386 53.4543C698.906 51.9126 698.349 50.3346 697.716 48.7364C696.231 44.9751 693.283 37.7106 686.708 30.2121C683.667 26.7494 679.42 21.9992 672.188 18.3993C667.359 15.998 662.822 14.9123 659.317 14.4119C662.81 13.0236 666.621 12.2608 670.61 12.2608C687.527 12.2608 701.245 25.9866 701.245 42.9168Z" fill="#FFFEFD"/>
<path d="M461.403 908.186C457.382 908.186 453.191 907.928 448.814 907.415C448.589 907.387 448.367 907.351 448.145 907.302L353.837 886.897C353.756 886.881 353.676 886.861 353.595 886.841C334.508 881.998 320.968 875.169 312.203 865.963C304.216 857.573 301.405 848.735 298.928 840.937C297.456 836.308 296.186 832.309 294.028 828.955C288.421 820.238 276.183 814.644 260.69 807.561C253.616 804.329 245.597 800.66 237.288 796.245C233.843 794.417 232.536 790.139 234.364 786.696C236.191 783.25 240.466 781.942 243.907 783.77C251.845 787.988 259.323 791.406 266.555 794.715C283.456 802.444 298.053 809.115 305.898 821.315C309.069 826.247 310.755 831.542 312.38 836.66C316.849 850.716 321.068 863.994 356.943 873.123L450.791 893.431C483.753 897.197 496.265 883.664 508.362 870.576C513.815 864.676 518.966 859.103 525.69 855.365C546.966 843.536 575.927 842.213 603.932 840.933C616.226 840.372 627.839 839.84 638.524 838.463C642.388 837.967 645.929 840.695 646.425 844.566C646.926 848.436 644.195 851.975 640.327 852.472C629.061 853.925 616.613 854.494 604.573 855.043C578.198 856.249 550.923 857.496 532.543 867.715C527.791 870.354 523.588 874.903 518.72 880.169C512.226 887.196 504.868 895.155 493.958 900.833C484.499 905.757 473.766 908.194 461.403 908.194V908.186Z" fill="#281A71"/>
</svg>
